<svg xmlns="http://www.w3.org/2000/svg" viewBox="0 0 100 110" width="100" height="110">
  <defs>
    <linearGradient id="pin" x1="50" y1="0" x2="50" y2="100" gradientUnits="userSpaceOnUse">
      <stop offset="0%" stop-color="#F472B6"/>
      <stop offset="50%" stop-color="#A855F7"/>
      <stop offset="100%" stop-color="#22D3EE"/>
    </linearGradient>
  </defs>
  <!-- Map pin -->
  <path d="M50 2C34.5 2 22 14.5 22 30C22 47 50 72 50 72C50 72 78 47 78 30C78 14.5 65.5 2 50 2Z"
    fill="url(#pin)" opacity="0.92"/>
  <!-- Inner circle cutout -->
  <circle cx="50" cy="30" r="13" fill="white" opacity="0.9"/>
  <!-- Sound wave bars -->
  <rect x="48.5" y="77.5" width="3" height="18" rx="1.5" fill="#A1A1AA" opacity="0.70"/>
  <rect x="40.5" y="80.5" width="3" height="12" rx="1.5" fill="#A1A1AA" opacity="0.62"/>
  <rect x="32.5" y="82.5" width="3" height="8"  rx="1.5" fill="#A1A1AA" opacity="0.54"/>
  <rect x="24.5" y="84.5" width="3" height="5"  rx="1.5" fill="#A1A1AA" opacity="0.46"/>
  <rect x="16.5" y="85.5" width="3" height="3"  rx="1.5" fill="#A1A1AA" opacity="0.38"/>
  <rect x="56.5" y="80.5" width="3" height="12" rx="1.5" fill="#A1A1AA" opacity="0.62"/>
  <rect x="64.5" y="82.5" width="3" height="8"  rx="1.5" fill="#A1A1AA" opacity="0.54"/>
  <rect x="72.5" y="84.5" width="3" height="5"  rx="1.5" fill="#A1A1AA" opacity="0.46"/>
  <rect x="80.5" y="85.5" width="3" height="3"  rx="1.5" fill="#A1A1AA" opacity="0.38"/>
</svg>
